<?xml version="1.0" standalone="no"?>
<!DOCTYPE svg PUBLIC "-//W3C//DTD SVG 20010904//EN"
 "http://www.w3.org/TR/2001/REC-SVG-20010904/DTD/svg10.dtd">
<svg version="1.0" xmlns="http://www.w3.org/2000/svg"
 width="700.000000pt" height="700.000000pt" viewBox="0 0 700.000000 700.000000"
 preserveAspectRatio="xMidYMid meet">
<metadata>
Created by potrace 1.14, written by Peter Selinger 2001-2017
</metadata>
<g transform="translate(0.000000,700.000000) scale(0.100000,-0.100000)"
fill="#000000" stroke="none">
<path d="M2827 6752 c-20 -21 -27 -38 -27 -69 0 -35 8 -49 61 -109 274 -311
361 -630 269 -988 -52 -203 -150 -362 -359 -580 -240 -250 -392 -457 -509
-691 -103 -206 -155 -380 -176 -585 l-12 -115 -32 65 c-38 77 -67 172 -88 295
-21 121 -30 510 -15 687 13 154 7 183 -44 206 -61 28 -81 18 -188 -85 -358
-352 -589 -771 -716 -1304 -25 -106 -51 -300 -61 -458 -22 -336 23 -669 135
-1006 348 -1043 1191 -1688 2333 -1786 537 -45 1041 64 1495 323 596 342 1002
872 1128 1477 50 242 65 589 33 812 -43 314 -157 597 -337 843 -96 131 -134
166 -180 166 -59 0 -74 -14 -116 -103 -92 -199 -218 -297 -380 -297 -122 0
-216 45 -270 129 -45 70 -62 147 -62 288 0 128 12 217 61 468 85 437 79 815
-18 1150 -85 293 -221 538 -409 735 -292 307 -683 483 -1209 545 -71 8 -163
15 -205 15 -69 0 -77 -2 -102 -28z m1172 -2286 c9 -11 1 -47 -38 -162 -161
-480 -147 -915 44 -1294 57 -114 108 -188 277 -400 382 -482 486 -668 534
-952 29 -173 6 -445 -47 -561 -10 -23 -62 -60 -194 -142 -37 -23 -211 -108
-225 -110 -3 0 -16 -7 -30 -15 -14 -7 -25 -12 -25 -9 0 2 -20 -4 -45 -13 -134
-48 -305 -88 -455 -104 -53 -6 -318 -6 -375 0 -46 5 -65 8 -180 27 -67 11
-201 48 -280 77 -25 9 -47 17 -50 17 -3 1 -14 6 -25 12 -11 6 -23 11 -28 12
-4 0 -24 8 -45 16 -108 48 -152 69 -152 76 0 4 -16 13 -35 20 -19 7 -35 17
-35 21 0 4 -6 8 -13 8 -7 0 -22 7 -32 15 -51 39 -122 86 -142 95 -13 5 -23 14
-23 20 0 5 -4 10 -9 10 -6 0 -30 19 -55 41 -40 37 -47 50 -63 118 -28 117 -25
410 6 551 42 197 131 420 200 500 40 47 58 35 92 -62 74 -211 237 -411 347
-425 74 -9 142 57 142 137 0 45 -19 110 -68 240 -112 292 -115 561 -12 910 39
130 125 351 180 460 142 284 401 574 725 813 93 69 114 77 134 53z"/>
</g>
</svg>
